<svg xmlns="http://www.w3.org/2000/svg" width="1274.093" height="116.786" viewBox="0 0 1274.093 116.786"><path fill-rule="evenodd" clip-rule="evenodd" fill="#2BACE2" d="M65.362.035l32.68 58.376 32.682 58.376H0L32.68 58.41"/><path fill-rule="evenodd" clip-rule="evenodd" fill="#010101" stroke="#231F20" stroke-width=".216" stroke-miterlimit="22.926" d="M160.843 11.776v49.14h30.23v.043c1.67-.467 3.603-1.105 5.615-1.967 7.893-3.384 17.034-10.23 16.615-23.757-.512-16.548-16.78-23.46-30.318-23.46h-22.144zm40.035 58.253l25.514 46.756H214.12l-23.85-43.692-5.06-.008h-24.367v43.7H148.57V11.776h-.075V.088H184.3c19.996 0 39.214 12.08 39.917 34.823.637 20.606-12.18 30.493-23.34 35.12z"/><g fill-rule="evenodd" clip-rule="evenodd" fill="#010101"><path d="M239.713 0h90.8v12.246h-90.8z"/><path d="M278.84 8.363h13.142v108.423H278.84z"/></g><path fill-rule="evenodd" clip-rule="evenodd" fill="#E9188C" d="M446.438 116.786c32.118 0 58.314-26.195 58.314-58.313S478.555.16 446.438.16s-58.313 26.195-58.313 58.313 26.195 58.313 58.313 58.313z"/><path fill-rule="evenodd" clip-rule="evenodd" fill="#010101" d="M532.34 0h75.376v12.364h-62.862v39.772h50.05V64.65h-50.05v52.136H532.34M1198.09 116.786V.14h75.284v12.35h-62.788v39.725h49.99v12.497h-49.99v39.57h63.834v12.504M977.715 116.786V.316h75.62v12.36h-63.067v39.77h50.214v12.51h-50.214v39.612h64.118v12.213M931.446.125h13.656V116.8h-13.656V62.766H869.4V116.8H855.74V.124H869.4v50.767h62.046"/><path fill-rule="evenodd" clip-rule="evenodd" fill="#010101" stroke="#231F20" stroke-width=".216" stroke-miterlimit="22.926" d="M1104.065 11.782V60.92h30.229v.042c1.67-.466 3.603-1.104 5.615-1.966 7.892-3.384 17.033-10.23 16.614-23.756-.51-16.547-16.78-23.458-30.317-23.458h-22.142zm40.033 58.25l25.513 46.754h-12.27l-23.85-43.69-5.058-.007h-24.366v43.697h-12.27V11.782h-.077V.095h35.8c19.996 0 39.214 12.078 39.916 34.82.636 20.604-12.182 30.49-23.338 35.116z"/><path fill-rule="evenodd" clip-rule="evenodd" fill="#FCEE23" d="M724.115 116.674l33.212-57.586L789.817 0H669.265l24.39 59.088"/><path fill-rule="evenodd" clip-rule="evenodd" fill="#FCEE23" d="M775.66 116.674l28.83-57.656L830.737 0H709.593l32.63 58.337"/><path fill-rule="evenodd" clip-rule="evenodd" fill="#E7D236" d="M709.89 0l31.836 57.027 8.277 14.847 8.276-14.847L790.113 0"/><path fill-rule="evenodd" clip-rule="evenodd" fill="#010101" d="M724.115 116.674h-13.467l-.106-.3L669.266 0h13.656l33.632 94.82L743 0H756.775l26.548 95.182L817.082 0h13.656l-41.383 116.674H775.66l-25.773-92.4-25.688 92.1"/></svg>